<svg width="101" height="100" viewBox="0 0 101 100" fill="none" xmlns="http://www.w3.org/2000/svg">
<path d="M54.9532 40.2024L53.2265 59.2282L64.0577 63.8606L81.1678 59.2282L82.4236 47.4818L62.9588 34.5774L54.9532 40.2024Z" fill="#449BE1"/>
<path d="M92.3129 66.6731L89.6444 53.2723L98.4349 50.1289L100.476 59.2282L92.3129 66.6731Z" fill="#449BE1"/>
<path d="M67.982 23.8236L77.4004 18.1986L80.069 24.4854L77.4004 32.0957L67.982 23.8236Z" fill="#449BE1"/>
<path d="M37.843 25.3126L39.4128 32.0957H48.2033L51.1858 25.3126L44.7499 18.1986L37.843 20.5148V25.3126Z" fill="#449BE1"/>
<path d="M0.483242 4.46693V85.8644C0.326268 90.4967 2.5239 99.7946 12.5702 99.9269C22.6166 100.059 57.1508 99.9821 77.4004 99.9269C83.6271 99.4857 92.7839 92.482 85.0921 87.5188C77.4004 82.5555 64.0577 74.9452 64.0577 74.9452L48.2033 66.6731L45.2208 47.4818L31.5641 39.0443L27.7967 17.0405L18.0643 7.27944L9.11681 0H3.7797L0.483242 4.46693Z" fill="#002F55"/>
</svg>
